<svg id="Layer_1" data-name="Layer 1" xmlns="http://www.w3.org/2000/svg" viewBox="0 0 225 70"><defs><style>.cls-1,.cls-3{isolation:isolate;}.cls-2,.cls-7{fill:#282828;}.cls-3{fill:#ccc;}.cls-4,.cls-5{fill:#fff;}.cls-4,.cls-5,.cls-6,.cls-7{stroke:#282828;stroke-miterlimit:10;}.cls-4,.cls-5,.cls-6{stroke-linecap:round;}.cls-4{stroke-width:3.38px;}.cls-5,.cls-6,.cls-7{stroke-width:2.46px;}.cls-6{fill:none;}</style></defs><title>logo_cropped</title><g id="numerous" class="cls-1"><g class="cls-1"><path class="cls-2" d="M106.94,32.75v8.32h-2.85v-8a1.67,1.67,0,0,0-1.73-1.9h-.72a2.22,2.22,0,0,0-2.28,2.4v7.52H96.51V28.88h2.4l.18,1.52a3.64,3.64,0,0,1,3.37-1.77H103C105.46,28.63,106.94,30.28,106.94,32.75Z"/><path class="cls-2" d="M120.09,28.88V41.07h-2.4l-.18-1.52a3.64,3.64,0,0,1-3.37,1.77h-.55c-2.43,0-3.9-1.65-3.9-4.12V28.88h2.85v8c0,1.25.67,1.9,1.72,1.9H115a2.2,2.2,0,0,0,2.25-2.4V28.88Z"/><path class="cls-2" d="M141,32.75v8.32h-2.84v-8a1.66,1.66,0,0,0-1.73-1.9h-.6a2.21,2.21,0,0,0-2.27,2.4v7.52h-2.85v-8a1.67,1.67,0,0,0-1.73-1.9h-.6a2.21,2.21,0,0,0-2.27,2.4v7.52h-2.85V28.88h2.4l.17,1.5a3.58,3.58,0,0,1,3.35-1.75h.45a3.64,3.64,0,0,1,3.4,1.85,3.93,3.93,0,0,1,3.53-1.85h.55C139.51,28.63,141,30.28,141,32.75Z"/><path class="cls-2" d="M146.14,36.87a2,2,0,0,0,2.12,2.2h1c1.12,0,1.72-.62,1.72-1.52h2.73c0,2.25-1.75,3.77-4.38,3.77h-1.2c-2.9,0-4.82-1.77-4.82-4.42V33.5a4.59,4.59,0,0,1,4.87-4.87H149a4.51,4.51,0,0,1,4.8,4.79v2.63h-7.7Zm0-3.37V34h5V33.5c0-1.72-.88-2.55-2.18-2.55h-.57C146.89,31,146.14,31.93,146.14,33.5Z"/><path class="cls-2" d="M163,28.63V31.3h-1.43a2.29,2.29,0,0,0-2.4,2.48v7.29h-2.85V28.88h2.4l.18,1.52a3.64,3.64,0,0,1,3.37-1.77Z"/><path class="cls-2" d="M174.94,33.5v3.17c0,2.73-2,4.65-5.1,4.65h-.78c-3.12,0-5.12-1.92-5.12-4.65V33.5c0-2.87,2-4.87,5.12-4.87h.78C172.94,28.63,174.94,30.63,174.94,33.5Zm-5.75-2.37a2.25,2.25,0,0,0-2.38,2.5v2.89a2.14,2.14,0,0,0,2.38,2.3h.52a2.12,2.12,0,0,0,2.33-2.3V33.63a2.22,2.22,0,0,0-2.33-2.5Z"/><path class="cls-2" d="M187.69,28.88V41.07h-2.4l-.18-1.52a3.64,3.64,0,0,1-3.37,1.77h-.55c-2.43,0-3.9-1.65-3.9-4.12V28.88h2.85v8c0,1.25.67,1.9,1.72,1.9h.73a2.2,2.2,0,0,0,2.25-2.4V28.88Z"/><path class="cls-2" d="M190.09,37.55h2.65c0,1.12.77,1.52,2,1.52h.65c1.63,0,2.3-.65,2.3-1.6s-.82-1.35-2.3-1.52c-3.75-.4-5.05-1.2-5.05-3.6s1.85-3.72,4.68-3.72h.27c2.93,0,4.68,1.27,4.68,3.72h-2.65c0-1.12-.83-1.47-2-1.47H195c-1.5,0-2,.55-2,1.4s.7,1.12,2.6,1.3c3.45.34,4.77,1.39,4.77,3.74,0,2.78-2,4-5.1,4h-.5C191.81,41.32,190.09,40,190.09,37.55Z"/></g></g><ellipse class="cls-3" cx="39.29" cy="48.15" rx="22.78" ry="6.13" transform="translate(-5.18 4.73) rotate(-6.47)"/><path class="cls-4" d="M40.59,44.87l10.57-3.65,12.32,2c4.43.58,9.5-5,9.52-6.76,0-2.8-7-13-13.56-15.62C49.69,17,39.38,20.12,29.24,22,9.49,25.6,11,36.52,12.76,42a12.62,12.62,0,0,0,15.92,8L41.25,47.3"/><path class="cls-5" d="M55.69,32.63a3.47,3.47,0,0,1,4.73-5.07"/><path class="cls-6" d="M44.11,38.27a4.68,4.68,0,0,1,6.32,2,4.12,4.12,0,0,1,.31.71"/><path class="cls-6" d="M26.34,39.08A6.72,6.72,0,0,1,34.5,44l0,.09a5.25,5.25,0,0,1,6.87,2.81,6.18,6.18,0,0,1,.27.83"/><path class="cls-4" d="M7.13,47.7a5.06,5.06,0,0,0,5.62-4.44,5,5,0,0,0-.32-2.44"/><circle class="cls-7" cx="62.61" cy="33.28" r="0.77"/><path class="cls-5" d="M64.09,43.3a4,4,0,0,1-1.83-4.11"/></svg>