<svg id="Layer_1" data-name="Layer 1" xmlns="http://www.w3.org/2000/svg" viewBox="0 0 702 127"><defs><style>.cls-1{fill:#f9f9f9;}.cls-2,.cls-4{isolation:isolate;}.cls-3,.cls-8{fill:#282828;}.cls-4{fill:#ccc;}.cls-5,.cls-6{fill:#fff;}.cls-5,.cls-6,.cls-7,.cls-8{stroke:#282828;stroke-miterlimit:10;}.cls-5,.cls-6,.cls-7{stroke-linecap:round;}.cls-5{stroke-width:3.38px;}.cls-6,.cls-7,.cls-8{stroke-width:2.46px;}.cls-7{fill:none;}</style></defs><title>logo</title><rect class="cls-1" width="702" height="127"/><g id="numerous" class="cls-2"><g class="cls-2"><path class="cls-3" d="M141.94,58.75v8.32h-2.85v-8a1.67,1.67,0,0,0-1.73-1.9h-.72a2.22,2.22,0,0,0-2.28,2.4v7.52h-2.85V54.88h2.4l.18,1.52a3.64,3.64,0,0,1,3.37-1.77H138C140.46,54.63,141.94,56.28,141.94,58.75Z"/><path class="cls-3" d="M155.09,54.88V67.07h-2.4l-.18-1.52a3.64,3.64,0,0,1-3.37,1.77h-.55c-2.43,0-3.9-1.65-3.9-4.12V54.88h2.85v8c0,1.25.67,1.9,1.72,1.9H150a2.2,2.2,0,0,0,2.25-2.4V54.88Z"/><path class="cls-3" d="M176,58.75v8.32h-2.84v-8a1.66,1.66,0,0,0-1.73-1.9h-.6a2.21,2.21,0,0,0-2.27,2.4v7.52h-2.85v-8a1.67,1.67,0,0,0-1.73-1.9h-.6a2.21,2.21,0,0,0-2.27,2.4v7.52h-2.85V54.88h2.4l.17,1.5a3.58,3.58,0,0,1,3.35-1.75h.45a3.64,3.64,0,0,1,3.4,1.85,3.93,3.93,0,0,1,3.53-1.85h.55C174.51,54.63,176,56.28,176,58.75Z"/><path class="cls-3" d="M181.14,62.87a2,2,0,0,0,2.12,2.2h1c1.12,0,1.72-.62,1.72-1.52h2.73c0,2.25-1.75,3.77-4.38,3.77h-1.2c-2.9,0-4.82-1.77-4.82-4.42V59.5a4.59,4.59,0,0,1,4.87-4.87H184a4.51,4.51,0,0,1,4.8,4.79v2.63h-7.7Zm0-3.37V60h5V59.5c0-1.72-.88-2.55-2.18-2.55h-.57C181.89,57,181.14,57.93,181.14,59.5Z"/><path class="cls-3" d="M198,54.63V57.3h-1.43a2.29,2.29,0,0,0-2.4,2.48v7.29h-2.85V54.88h2.4l.18,1.52a3.64,3.64,0,0,1,3.37-1.77Z"/><path class="cls-3" d="M209.94,59.5v3.17c0,2.73-2,4.65-5.1,4.65h-.78c-3.12,0-5.12-1.92-5.12-4.65V59.5c0-2.87,2-4.87,5.12-4.87h.78C207.94,54.63,209.94,56.63,209.94,59.5Zm-5.75-2.37a2.25,2.25,0,0,0-2.38,2.5v2.89a2.14,2.14,0,0,0,2.38,2.3h.52a2.12,2.12,0,0,0,2.33-2.3V59.63a2.22,2.22,0,0,0-2.33-2.5Z"/><path class="cls-3" d="M222.69,54.88V67.07h-2.4l-.18-1.52a3.64,3.64,0,0,1-3.37,1.77h-.55c-2.43,0-3.9-1.65-3.9-4.12V54.88h2.85v8c0,1.25.67,1.9,1.72,1.9h.73a2.2,2.2,0,0,0,2.25-2.4V54.88Z"/><path class="cls-3" d="M225.09,63.55h2.65c0,1.12.77,1.52,2,1.52h.65c1.63,0,2.3-.65,2.3-1.6s-.82-1.35-2.3-1.52c-3.75-.4-5.05-1.2-5.05-3.6s1.85-3.72,4.68-3.72h.27c2.93,0,4.68,1.27,4.68,3.72h-2.65c0-1.12-.83-1.47-2-1.47H230c-1.5,0-2,.55-2,1.4s.7,1.12,2.6,1.3c3.45.34,4.77,1.39,4.77,3.74,0,2.78-2,4-5.1,4h-.5C226.81,67.32,225.09,66,225.09,63.55Z"/></g></g><ellipse class="cls-4" cx="74.29" cy="73.15" rx="22.78" ry="6.13" transform="translate(-7.77 8.84) rotate(-6.47)"/><path class="cls-5" d="M75.59,69.87l10.57-3.65,12.32,2c4.43.58,9.5-5,9.52-6.76,0-2.8-7-13-13.56-15.62C84.69,42,74.38,45.12,64.24,47,44.49,50.6,46,61.52,47.76,67a12.62,12.62,0,0,0,15.92,8L76.25,72.3"/><path class="cls-6" d="M90.69,57.63a3.47,3.47,0,0,1,4.73-5.07"/><path class="cls-7" d="M79.11,63.27a4.68,4.68,0,0,1,6.32,2,4.12,4.12,0,0,1,.31.71"/><path class="cls-7" d="M61.34,64.08A6.72,6.72,0,0,1,69.5,69l0,.09a5.25,5.25,0,0,1,6.87,2.81,6.18,6.18,0,0,1,.27.83"/><path class="cls-5" d="M42.13,72.7a5.06,5.06,0,0,0,5.62-4.44,5,5,0,0,0-.32-2.44"/><circle class="cls-8" cx="97.61" cy="58.28" r="0.77"/><path class="cls-6" d="M99.09,68.3a4,4,0,0,1-1.83-4.11"/></svg>